<svg xmlns="http://www.w3.org/2000/svg" width="24" height="24" viewBox="0 0 24 24" fill="none">
    <path
        fill="black"
        d="M6.92554 5.077C9.00179 6.64106 11.235 9.81232 12.055 11.5142C12.875 9.81245 15.1081 6.64103 17.1844 5.077C18.6825 3.94843 21.1098 3.07521 21.1098 5.85384C21.1098 6.40877 20.7927 10.5155 20.6068 11.1823C19.9603 13.5002 17.6048 14.0914 15.5095 13.7336C19.172 14.3591 20.1037 16.4309 18.0916 18.5028C14.2701 22.4376 12.5991 17.5155 12.1707 16.2543C12.0922 16.0231 12.0554 15.9149 12.0549 16.0069C12.0544 15.9149 12.0176 16.0231 11.9391 16.2543C11.5109 17.5155 9.83988 22.4377 6.0182 18.5028C4.00603 16.4309 4.93771 14.359 8.6003 13.7336C6.50495 14.0914 4.14937 13.5002 3.50304 11.1823C3.31707 10.5155 3 6.40871 3 5.85384C3 3.07521 5.42739 3.94843 6.92543 5.077H6.92554Z"
    />
</svg>